<svg xmlns="http://www.w3.org/2000/svg" viewBox="0 0 150 150"><defs><style>.cls-1{fill:#017f91;}.cls-2{fill:#c0d72f;}</style></defs><g id="Layer_2" data-name="Layer 2"><g id="Layer_1-2" data-name="Layer 1"><path class="cls-1" d="M64.43,144a3.81,3.81,0,0,0,0,.59,4.07,4.07,0,0,0,.09.87c.25,1.09,1,1.88,1.79,1.88h.23l.08,0a1.66,1.66,0,0,0,.21-.06h0l0,0,.07,0,.06,0,.11-.07.08-.06a.39.39,0,0,0,.1-.08l.08-.07h0l.07-.08h0l.07-.08h0l.06-.08.06-.08,0-.06,0-.07v-.94H66.44V144h2.85v2.75a4,4,0,0,1-1.59,1.68,3.24,3.24,0,0,1-1.26.38h-.23a3.83,3.83,0,0,1-3.52-3.36,5,5,0,0,1-.09-1,4.07,4.07,0,0,1,0-.5,3.91,3.91,0,0,1,3.58-3.82h.23a3.07,3.07,0,0,1,1.26.37,4,4,0,0,1,1.59,1.69v.28H67.52v0h0v0h0l-.12-.13s0-.05-.07-.06,0,0,0,0h0l0,0,0,0h0l-.07-.05h0l-.07,0-.06,0h0l-.05,0h0l-.06,0h0l0,0h0l-.07,0-.07,0H66l-.08,0-.06,0h0l-.06,0h0l-.06,0h0l0,0h0l-.06,0-.07,0h0l-.06.05h0l0,0,0,0h0l0,0s0,0-.06.06l-.12.13h0l0,0h0l0,0v0l0,.07,0,0h0l-.06.09,0,.05h0l-.06.1h0a.3.3,0,0,0,0,.08s0,.07,0,.1l0,.07v0a.21.21,0,0,0,0,.07v0l0,.07s0,.06,0,.08l0,.11a.25.25,0,0,0,0,.07l0,.06a.24.24,0,0,1,0,.08v0h0a.24.24,0,0,0,0,.08h0S64.44,144,64.43,144Z"/><polygon class="cls-1" points="88.6 140.68 88.6 148.09 90.3 148.09 90.3 143.72 93.09 148.09 94.95 148.09 94.95 140.68 93.26 140.68 93.39 145.42 90.42 140.68 88.6 140.68"/><polygon class="cls-1" points="71.51 140.68 71.51 148.09 73.29 148.09 73.29 145.05 76.24 145.12 76.24 148.09 78.19 148.09 78.19 140.68 76.24 140.68 76.24 143.32 73.4 143.06 73.4 140.68 71.51 140.68"/><polyline class="cls-1" points="82.19 140.69 82.19 140.68 84.52 140.68"/><path class="cls-1" d="M86.53,146.88,84.4,140.7H82.19l-2.14,6.18-.42,1.21h1.62a3.81,3.81,0,0,1,.6-1.21h2.87a3.73,3.73,0,0,1,.62,1.23H87Zm-4.39-1.26,1.07-3.47,1,3.47Z"/><line class="cls-1" x1="82.19" y1="140.7" x2="82.07" y2="140.7"/><polyline class="cls-1" points="99.09 140.7 99.09 140.69 101.42 140.69"/><path class="cls-1" d="M103.44,146.89l-2.14-6.19H99.09L97,146.89l-.42,1.21h1.62a3.81,3.81,0,0,1,.6-1.21h2.88a3.93,3.93,0,0,1,.62,1.22h1.61Zm-4.39-1.26,1.06-3.47,1,3.47Z"/><line class="cls-1" x1="99.09" y1="140.7" x2="98.98" y2="140.7"/><path class="cls-1" d="M81.41,115.47a5.45,5.45,0,0,0,.07,2c.34,1.48,1.3,2.55,2.43,2.55h.22l.1,0,.1,0a1.52,1.52,0,0,0,.28-.09h0l0,0,.08,0,.08,0,.16-.1.11-.08a.69.69,0,0,0,.13-.11l.11-.09h0l.1-.1,0,0,.09-.11h0l.09-.11.07-.11.06-.08.06-.1v-1.27h-1.7v-2H88v3.74a5.35,5.35,0,0,1-2.17,2.29,4.05,4.05,0,0,1-1.7.51h-.32c-2.34,0-4.29-2-4.79-4.56a7,7,0,0,1-.12-1.31c0-.23,0-.46,0-.68.28-2.93,2.36-5.2,4.88-5.2h.32a4.2,4.2,0,0,1,1.7.51,5.32,5.32,0,0,1,2.17,2.3v.37H85.6l0,0,0,0a0,0,0,0,0,0,0v0c-.06-.06-.11-.13-.17-.18l-.09-.08-.06-.06h0l0,0,0,0,0,0-.09-.06h0l-.09,0-.08,0h0l0,0h0l-.07,0h0l-.09,0h0s0,0-.07,0h0l-.08,0-.1,0h0l-.08,0h-.45l-.08,0h0l-.1,0-.08,0h0l-.08,0h0l-.09,0h0l-.07,0h0l0,0h0l-.08,0-.09,0h0l-.09.06,0,0,0,0,0,0h0l-.07.06-.08.08c-.06,0-.11.12-.17.18v0a0,0,0,0,0,0,0l0,0,0,0h0l-.08.1a.18.18,0,0,1,0,.07h0a.57.57,0,0,1-.08.13l0,.07h0s0,.1-.08.14h0a.54.54,0,0,1,0,.11l-.06.14a.36.36,0,0,0,0,.09v0s0,.07,0,.11v0a.36.36,0,0,1,0,.09l0,.11a.83.83,0,0,0,0,.15l0,.1s0,.05,0,.07a.43.43,0,0,0,0,.11.09.09,0,0,0,0,0h0a.52.52,0,0,1,0,.11h0A.78.78,0,0,0,81.41,115.47Z"/><polygon class="cls-1" points="0 110.75 0 121.09 1.83 121.09 1.83 113.25 4.2 121.09 6.21 121.09 8.1 113.25 8.1 121.09 10.11 121.09 10.11 110.75 6.74 110.75 5.05 117.05 3.31 110.75 0 110.75"/><polygon class="cls-1" points="12.35 110.75 12.35 121.09 19.74 121.09 19.74 119.36 14.89 119.36 14.89 116.53 19.21 116.59 19.15 114.8 14.95 114.73 14.95 112.42 19.74 112.48 19.74 110.75 12.35 110.75"/><polygon class="cls-1" points="21.81 110.75 21.81 121.09 24.17 121.09 24.17 114.99 28.07 121.09 30.67 121.09 30.67 110.75 28.31 110.75 28.49 117.37 24.35 110.75 21.81 110.75"/><polygon class="cls-1" points="68.18 110.75 68.18 121.09 70.55 121.09 70.55 114.99 74.45 121.09 77.05 121.09 77.05 110.75 74.68 110.75 74.86 117.37 70.72 110.75 68.18 110.75"/><polygon class="cls-1" points="32.51 110.75 40.72 110.75 40.72 112.93 37.71 112.93 37.71 121.09 35.23 121.09 35.28 112.93 32.51 112.93 32.51 110.75"/><path class="cls-1" d="M46.39,110.67c-2.61,0-4.72,2.43-4.72,5.43s2.11,5.43,4.72,5.43,4.73-2.44,4.73-5.43S49,110.67,46.39,110.67Zm.1,9.07c-1.2,0-2.16-1.55-2.16-3.47s1-3.47,2.16-3.47,2.15,1.56,2.15,3.47S47.68,119.74,46.49,119.74Z"/><path class="cls-1" d="M59.28,117a5.16,5.16,0,0,0,1.6-1.86,3.7,3.7,0,0,0-1.42-4.37H53v10.34h2.6v-4s1.25-.26,1.66.64c0,0,1.54,3.21,1.65,3.4h2.84S60.17,117,59.28,117Zm-3.55-1.67v-2.82s3-.43,3,1.68C58.69,114.17,59.1,115.5,55.73,115.31Z"/><polygon class="cls-1" points="63.71 110.67 65.94 110.75 65.94 121.09 63.71 121.09 63.71 110.67"/><polygon class="cls-2" points="72.61 127.19 72.61 137.54 74.45 137.54 74.45 129.7 76.81 137.54 78.82 137.54 80.71 129.7 80.71 137.54 82.72 137.54 82.72 127.19 79.35 127.19 77.67 133.49 75.92 127.19 72.61 127.19"/><polygon class="cls-2" points="84.97 127.19 84.97 137.54 92.35 137.54 92.35 135.8 87.51 135.8 87.51 132.98 91.82 133.04 91.76 131.24 87.57 131.18 87.57 128.87 92.35 128.93 92.35 127.19 84.97 127.19"/><polygon class="cls-2" points="94.52 127.19 94.52 137.25 96.68 137.25 96.68 131.32 100.23 137.25 102.6 137.25 102.6 127.19 100.44 127.19 100.61 133.63 96.84 127.19 94.52 127.19"/><path class="cls-2" d="M65.71,126.94c-2.61,0-4.72,2.43-4.72,5.43s2.11,5.42,4.72,5.42,4.73-2.43,4.73-5.42S68.32,126.94,65.71,126.94Zm.1,9.07c-1.2,0-2.16-1.55-2.16-3.47s1-3.47,2.16-3.47S68,130.63,68,132.54,67,136,65.81,136Z"/><polygon class="cls-2" points="47.58 127.19 49.53 137.54 52.07 137.54 53.9 130.53 55.73 137.54 58.22 137.54 60.28 127.19 57.86 127.19 56.62 132.54 54.97 127.19 53.01 127.19 51.12 132.54 49.82 127.19 47.58 127.19"/><path class="cls-2" d="M3.66,97.19l26-79.65,13,39.83L55.73,17.54,81.32,95.91s4.14,7.45,7.81,1.28a5.56,5.56,0,0,0,0-4.11s.26-6.93,3.38-3.59l3.22,10.15s-7.55,13.74-19.49,5.14c0,0-4.37-5.91-5.08-10.15,0,0-13.95-42.66-15.43-45L47.52,72.27l9.7,25-8.58,5.4L43.26,88.59l-4.84,14.13-9.11-6.55L37.83,71.5,30.67,49.14,12.35,102.85Z"/><path class="cls-1" d="M111.94,150l9.69-30.26,9.1,30.26L150,89.36,144.09,85l-14,42-5.2-17.64L130,94.75s-7,8.61-16.19.9l4.85,13.66-6.74,17.63L99.23,85S93,76.51,85,85c0,0-5.77,10,1,12.2,0,0,1.8.26,2.09-3.08,0,0,.31-11.69,6.09-5C94.11,89.1,111.58,148.84,111.94,150Z"/><ellipse class="cls-2" cx="121.57" cy="86.53" rx="8.45" ry="9.19"/><ellipse class="cls-1" cx="42.63" cy="11.98" rx="10.37" ry="11.98"/></g></g></svg>